<svg xmlns="http://www.w3.org/2000/svg" width="1129" height="1280" viewBox="0 0 1129 1280" version="1.1"><path d="M 560.207 24.336 C 541.535 41.536, 455.226 121.491, 450 126.429 C 438.888 136.930, 376.861 194.379, 322.500 244.518 C 258.206 303.819, 186.776 369.953, 140 413.488 C 120.475 431.660, 86.387 463.309, 64.250 483.820 C 42.112 504.330, 24.001 521.649, 24.002 522.306 C 24.003 522.963, 25.715 525.075, 27.806 527 C 29.898 528.925, 36.041 534.550, 41.457 539.500 C 52.586 549.671, 54.907 551.834, 64.602 561.073 C 68.396 564.688, 89.275 584.033, 111 604.063 C 132.725 624.093, 171.650 660.067, 197.500 684.007 C 223.350 707.947, 271.275 752.244, 304 782.445 C 336.725 812.646, 366.200 839.962, 369.500 843.147 C 372.800 846.331, 376.400 849.602, 377.500 850.414 C 379.941 852.218, 385.423 846.724, 331.500 896.527 C 258.556 963.898, 251.892 970.204, 252.199 971.571 C 252.365 972.306, 283.325 1001.359, 321 1036.133 C 376.782 1087.620, 495.487 1197.615, 553.209 1251.304 C 559.648 1257.293, 565.353 1262.038, 565.885 1261.847 C 566.417 1261.656, 589.889 1240.125, 618.046 1214 C 646.202 1187.875, 670.393 1165.477, 671.803 1164.226 C 673.213 1162.975, 677.343 1159.150, 680.980 1155.726 C 684.618 1152.302, 692.017 1145.450, 697.423 1140.500 C 702.829 1135.550, 709.127 1129.700, 711.418 1127.500 C 713.709 1125.300, 718.715 1120.623, 722.542 1117.107 C 726.369 1113.591, 731.975 1108.381, 735 1105.529 C 745.463 1095.665, 871.350 979.487, 875.168 976.172 C 877.276 974.342, 879 972.226, 879 971.470 C 879 970.199, 862.343 954.511, 782.500 880.585 C 766 865.308, 752.500 852.452, 752.500 852.018 C 752.500 851.272, 771.183 833.865, 863 749.065 C 884.175 729.508, 904.425 710.767, 908 707.418 C 911.575 704.069, 917.650 698.405, 921.500 694.832 C 927.770 689.012, 941.741 675.947, 945.924 671.990 C 946.802 671.159, 974.052 645.959, 1006.479 615.990 C 1094.461 534.677, 1106.315 523.606, 1106.717 522.372 C 1107.062 521.316, 1088.506 503.901, 988.072 411.028 C 965.836 390.466, 946.912 372.936, 946.019 372.072 C 945.126 371.207, 939.740 366.225, 934.051 361 C 928.362 355.775, 921.838 349.700, 919.552 347.500 C 917.267 345.300, 911.431 339.900, 906.583 335.500 C 901.736 331.100, 895.893 325.700, 893.599 323.500 C 891.305 321.300, 885.209 315.675, 880.053 311 C 872.207 303.887, 859.553 292.161, 853.075 286 C 852.208 285.175, 836.423 270.578, 817.999 253.562 C 799.575 236.547, 778.425 216.940, 771 209.992 C 763.575 203.044, 726.900 169.080, 689.500 134.515 C 610.128 61.160, 599.730 51.533, 595.517 47.500 C 593.794 45.850, 588.151 40.675, 582.977 36 C 577.804 31.325, 571.850 25.813, 569.747 23.750 C 567.643 21.688, 565.696 20, 565.419 20 C 565.141 20, 562.796 21.951, 560.207 24.336 M 543.500 226.615 C 531.950 237.345, 519.212 249.133, 515.194 252.812 C 511.175 256.490, 505.743 261.525, 503.123 264 C 500.502 266.475, 495.690 271.013, 492.429 274.084 C 489.168 277.156, 465.800 298.751, 440.500 322.073 C 415.200 345.396, 370.196 386.983, 340.490 414.489 C 310.785 441.995, 272.392 477.497, 255.172 493.382 C 237.953 509.267, 224.232 522.578, 224.682 522.962 C 225.132 523.346, 237.875 535.090, 253 549.060 C 268.125 563.030, 282.947 576.719, 285.937 579.480 C 288.927 582.241, 294.327 587.239, 297.937 590.586 C 301.547 593.934, 307.632 599.559, 311.461 603.086 C 315.289 606.614, 320.064 611.075, 322.072 613 C 324.080 614.925, 329.887 620.325, 334.976 625 C 340.066 629.675, 346.124 635.300, 348.440 637.500 C 350.755 639.700, 357.092 645.550, 362.521 650.500 C 370.616 657.880, 378.689 665.364, 387.385 673.550 C 387.998 674.128, 406.725 691.434, 429 712.008 C 451.275 732.582, 478.275 757.545, 489 767.481 C 540.207 814.921, 562.643 835.612, 564.197 836.829 C 565.704 838.008, 569.622 834.702, 599.197 807.293 C 617.514 790.318, 668.275 743.402, 712 703.036 C 755.725 662.670, 798.025 623.509, 806 616.011 C 813.975 608.513, 839.175 585.125, 862 564.037 C 884.825 542.950, 904.328 524.924, 905.341 523.979 C 907.418 522.042, 912.728 527.190, 829.500 450.454 C 807.500 430.170, 774.200 399.391, 755.500 382.057 C 694.898 325.881, 666.601 299.701, 655.457 289.500 C 649.448 284, 640.925 276.149, 636.516 272.054 C 632.107 267.959, 626.277 262.559, 623.559 260.054 C 620.842 257.549, 616.495 253.475, 613.899 251 C 611.304 248.525, 605.226 242.900, 600.393 238.500 C 591.598 230.494, 583.832 223.328, 572.410 212.678 C 569.060 209.555, 565.910 207.024, 565.410 207.054 C 564.909 207.083, 555.050 215.886, 543.500 226.615" stroke="none" fill="#2b8bfb" fill-rule="evenodd"/></svg>